<svg width="733" height="293" viewBox="0 0 733 293" fill="none" xmlns="http://www.w3.org/2000/svg">
<path d="M318.96 123L300.144 67.192L281.712 123H267.12L242.16 48.76C240.88 44.8347 239.429 41.848 237.808 39.8C236.187 37.752 233.797 35.5333 230.64 33.144L232.304 31.096H261.104L262.64 35.448L259.696 36.216C257.648 36.728 256.155 37.4107 255.216 38.264C254.363 39.1173 253.936 40.312 253.936 41.848C253.936 43.2133 254.405 45.304 255.344 48.12L276.208 112.376L295.28 52.856L294 48.76C292.72 44.8347 291.269 41.848 289.648 39.8C288.027 37.752 285.637 35.5333 282.48 33.144L284.144 31.096H312.944L314.48 35.448L311.536 36.216C309.488 36.728 307.995 37.4107 307.056 38.264C306.203 39.1173 305.776 40.312 305.776 41.848C305.776 43.2133 306.245 45.304 307.184 48.12L328.048 112.376L345.968 56.696C347.589 51.576 348.4 47.608 348.4 44.792C348.229 40.0987 346.309 37.24 342.64 36.216L339.696 35.448L341.232 31.096H365.552L367.216 33.144L365.296 35.448C362.139 39.2027 359.792 43.4693 358.256 48.248L333.552 123H318.96ZM362.76 91.256C362.76 84.4293 363.997 78.4987 366.472 73.464C369.032 68.4293 372.659 64.5467 377.352 61.816C382.131 59.0853 387.677 57.72 393.992 57.72C400.307 57.72 405.811 59.0853 410.504 61.816C415.197 64.5467 418.824 68.4293 421.384 73.464C423.944 78.4987 425.224 84.4293 425.224 91.256C425.224 97.9973 423.944 103.928 421.384 109.048C418.824 114.083 415.197 117.965 410.504 120.696C405.811 123.427 400.307 124.792 393.992 124.792C387.677 124.792 382.131 123.427 377.352 120.696C372.659 117.965 369.032 114.083 366.472 109.048C363.997 103.928 362.76 97.9973 362.76 91.256ZM411.784 91.64C411.784 87.6293 411.229 83.5333 410.12 79.352C409.011 75.1707 407.133 71.6293 404.488 68.728C401.928 65.8267 398.557 64.376 394.376 64.376C390.792 64.376 387.592 65.528 384.776 67.832C382.045 70.0507 379.912 73.208 378.376 77.304C376.84 81.4 376.072 86.0933 376.072 91.384C376.072 99.4907 377.651 105.933 380.808 110.712C383.965 115.491 388.232 117.88 393.608 117.88C397.107 117.88 400.221 116.813 402.952 114.68C405.768 112.461 407.944 109.389 409.48 105.464C411.016 101.453 411.784 96.8453 411.784 91.64ZM436.76 91.256C436.76 84.4293 437.997 78.4987 440.472 73.464C443.032 68.4293 446.659 64.5467 451.352 61.816C456.131 59.0853 461.677 57.72 467.992 57.72C474.307 57.72 479.811 59.0853 484.504 61.816C489.197 64.5467 492.824 68.4293 495.384 73.464C497.944 78.4987 499.224 84.4293 499.224 91.256C499.224 97.9973 497.944 103.928 495.384 109.048C492.824 114.083 489.197 117.965 484.504 120.696C479.811 123.427 474.307 124.792 467.992 124.792C461.677 124.792 456.131 123.427 451.352 120.696C446.659 117.965 443.032 114.083 440.472 109.048C437.997 103.928 436.76 97.9973 436.76 91.256ZM485.784 91.64C485.784 87.6293 485.229 83.5333 484.12 79.352C483.011 75.1707 481.133 71.6293 478.488 68.728C475.928 65.8267 472.557 64.376 468.376 64.376C464.792 64.376 461.592 65.528 458.776 67.832C456.045 70.0507 453.912 73.208 452.376 77.304C450.84 81.4 450.072 86.0933 450.072 91.384C450.072 99.4907 451.651 105.933 454.808 110.712C457.965 115.491 462.232 117.88 467.608 117.88C471.107 117.88 474.221 116.813 476.952 114.68C479.768 112.461 481.944 109.389 483.48 105.464C485.016 101.453 485.784 96.8453 485.784 91.64ZM567.72 111.736C567.72 114.381 569 115.704 571.56 115.704C573.693 115.704 575.827 114.936 577.96 113.4L580.392 116.728C578.173 119.203 575.784 121.165 573.224 122.616C570.664 124.067 568.317 124.792 566.184 124.792C562.685 124.792 560.168 123.725 558.632 121.592C557.096 119.459 556.328 116.003 556.328 111.224C552.829 116.173 549.245 119.672 545.576 121.72C541.907 123.768 537.939 124.792 533.672 124.792C529.576 124.792 525.779 123.64 522.28 121.336C518.781 118.947 515.965 115.405 513.832 110.712C511.784 106.019 510.76 100.344 510.76 93.688C510.76 86.3493 512.083 79.992 514.728 74.616C517.459 69.1547 521.299 64.9733 526.248 62.072C531.283 59.1707 537.171 57.72 543.912 57.72C548.349 57.72 552.403 58.2747 556.072 59.384V36.728C556.072 35.704 555.859 34.9787 555.432 34.552C555.091 34.1253 554.451 33.912 553.512 33.912H547.88L546.728 30.584C549.203 28.3653 552.019 26.5307 555.176 25.08C558.419 23.6293 561.235 22.904 563.624 22.904C564.819 22.904 565.8 23.288 566.568 24.056C567.336 24.824 567.72 25.8053 567.72 27V111.736ZM524.2 91.256C524.2 99.3627 525.565 105.336 528.296 109.176C531.112 113.016 534.611 114.936 538.792 114.936C542.205 114.936 545.405 113.997 548.392 112.12C551.379 110.157 554.024 107.213 556.328 103.288V68.728C552.403 66.0827 548.221 64.76 543.784 64.76C537.555 64.76 532.733 67.1067 529.32 71.8C525.907 76.408 524.2 82.8933 524.2 91.256ZM642.794 113.4C639.637 117.069 635.882 119.885 631.53 121.848C627.178 123.811 622.485 124.792 617.45 124.792C611.562 124.792 606.399 123.427 601.962 120.696C597.525 117.965 594.069 114.125 591.594 109.176C589.205 104.227 588.01 98.5093 588.01 92.024C588.01 85.1973 589.375 79.224 592.106 74.104C594.837 68.8987 598.677 64.888 603.626 62.072C608.661 59.1707 614.506 57.72 621.162 57.72C625.855 57.72 629.823 58.616 633.066 60.408C636.394 62.1147 638.869 64.4187 640.49 67.32C642.111 70.136 642.922 73.208 642.922 76.536C642.922 80.12 641.941 83.576 639.978 86.904C638.101 90.232 635.327 92.9627 631.658 95.096C627.989 97.144 623.594 98.168 618.474 98.168C615.743 98.168 612.714 97.656 609.386 96.632C606.058 95.608 604.394 94.1147 604.394 92.152C604.394 91.4693 604.565 90.8293 604.906 90.232C605.333 89.6347 605.802 89.336 606.314 89.336C606.57 89.336 607.423 89.6347 608.874 90.232C610.325 90.744 612.202 91 614.506 91C619.626 91 623.594 89.5493 626.41 86.648C629.311 83.7467 630.762 80.3333 630.762 76.408C630.762 73.08 629.695 70.2213 627.562 67.832C625.429 65.3573 622.442 64.12 618.602 64.12C613.141 64.12 608.874 66.552 605.802 71.416C602.73 76.1947 601.194 83.064 601.194 92.024C601.194 99.6187 602.815 105.592 606.058 109.944C609.301 114.211 613.994 116.344 620.138 116.344C627.647 116.344 633.877 113.912 638.826 109.048C639.167 108.707 639.551 108.536 639.978 108.536C640.661 108.536 641.386 108.963 642.154 109.816C642.922 110.584 643.306 111.395 643.306 112.248C643.306 112.675 643.135 113.059 642.794 113.4ZM676.112 102.52C676.112 106.531 676.411 109.731 677.008 112.12C677.605 114.509 678.672 116.813 680.208 119.032L681.744 121.08L680.208 123H657.808L656.4 119.032L659.088 118.392C661.221 117.88 662.629 116.984 663.312 115.704C664.08 114.339 664.464 112.035 664.464 108.792V72.824C664.464 71.8 664.251 71.0747 663.824 70.648C663.483 70.2213 662.843 70.008 661.904 70.008H656.272L655.12 66.68C657.595 64.4613 660.411 62.6267 663.568 61.176C666.811 59.7253 669.627 59 672.016 59C673.211 59 674.192 59.384 674.96 60.152C675.728 60.92 676.112 61.9013 676.112 63.096V76.792C678.331 71.2453 681.659 66.68 686.096 63.096C690.533 59.512 695.184 57.72 700.048 57.72C706.021 57.72 710.373 59.5547 713.104 63.224C715.835 66.8933 717.2 72.7387 717.2 80.76V111.736C717.2 114.637 718.48 116.088 721.04 116.088C723.003 116.088 725.136 115.192 727.44 113.4L729.872 116.728C727.653 119.203 725.264 121.165 722.704 122.616C720.144 124.067 717.755 124.792 715.536 124.792C712.037 124.792 709.52 123.725 707.984 121.592C706.448 119.459 705.68 116.003 705.68 111.224V80.76C705.68 72.056 702.011 67.704 694.672 67.704C691.003 67.704 687.76 69.1547 684.944 72.056C682.213 74.9573 680.037 79.0533 678.416 84.344C676.88 89.6347 676.112 95.6933 676.112 102.52ZM318.96 266L300.144 210.192L281.712 266H267.12L242.16 191.76C240.88 187.835 239.429 184.848 237.808 182.8C236.187 180.752 233.797 178.533 230.64 176.144L232.304 174.096H261.104L262.64 178.448L259.696 179.216C257.648 179.728 256.155 180.411 255.216 181.264C254.363 182.117 253.936 183.312 253.936 184.848C253.936 186.213 254.405 188.304 255.344 191.12L276.208 255.376L295.28 195.856L294 191.76C292.72 187.835 291.269 184.848 289.648 182.8C288.027 180.752 285.637 178.533 282.48 176.144L284.144 174.096H312.944L314.48 178.448L311.536 179.216C309.488 179.728 307.995 180.411 307.056 181.264C306.203 182.117 305.776 183.312 305.776 184.848C305.776 186.213 306.245 188.304 307.184 191.12L328.048 255.376L345.968 199.696C347.589 194.576 348.4 190.608 348.4 187.792C348.229 183.099 346.309 180.24 342.64 179.216L339.696 178.448L341.232 174.096H365.552L367.216 176.144L365.296 178.448C362.139 182.203 359.792 186.469 358.256 191.248L333.552 266H318.96ZM362.76 234.256C362.76 227.429 363.997 221.499 366.472 216.464C369.032 211.429 372.659 207.547 377.352 204.816C382.131 202.085 387.677 200.72 393.992 200.72C400.307 200.72 405.811 202.085 410.504 204.816C415.197 207.547 418.824 211.429 421.384 216.464C423.944 221.499 425.224 227.429 425.224 234.256C425.224 240.997 423.944 246.928 421.384 252.048C418.824 257.083 415.197 260.965 410.504 263.696C405.811 266.427 400.307 267.792 393.992 267.792C387.677 267.792 382.131 266.427 377.352 263.696C372.659 260.965 369.032 257.083 366.472 252.048C363.997 246.928 362.76 240.997 362.76 234.256ZM411.784 234.64C411.784 230.629 411.229 226.533 410.12 222.352C409.011 218.171 407.133 214.629 404.488 211.728C401.928 208.827 398.557 207.376 394.376 207.376C390.792 207.376 387.592 208.528 384.776 210.832C382.045 213.051 379.912 216.208 378.376 220.304C376.84 224.4 376.072 229.093 376.072 234.384C376.072 242.491 377.651 248.933 380.808 253.712C383.965 258.491 388.232 260.88 393.608 260.88C397.107 260.88 400.221 259.813 402.952 257.68C405.768 255.461 407.944 252.389 409.48 248.464C411.016 244.453 411.784 239.845 411.784 234.64ZM457.88 219.792C459.331 214.075 461.549 209.467 464.536 205.968C467.608 202.469 470.936 200.72 474.52 200.72C478.104 200.72 481.048 201.915 483.352 204.304C485.741 206.608 486.936 209.765 486.936 213.776C486.936 217.019 485.741 219.749 483.352 221.968C480.963 224.187 477.976 225.296 474.392 225.296C472.771 225.296 471.96 224.827 471.96 223.888C471.96 223.632 472.301 222.992 472.984 221.968C473.752 220.944 474.349 219.877 474.776 218.768C475.288 217.659 475.544 216.421 475.544 215.056C475.544 213.52 475.117 212.325 474.264 211.472C473.496 210.533 472.515 210.064 471.32 210.064C469.272 210.064 467.139 211.301 464.92 213.776C462.787 216.165 460.952 220.091 459.416 225.552C457.88 230.928 457.112 237.755 457.112 246.032C457.112 249.872 457.411 252.987 458.008 255.376C458.605 257.68 459.672 259.899 461.208 262.032L462.744 264.08L461.208 266H438.808L437.4 262.032L440.088 261.392C442.221 260.88 443.629 259.984 444.312 258.704C445.08 257.339 445.464 255.035 445.464 251.792V215.824C445.464 214.8 445.251 214.075 444.824 213.648C444.483 213.221 443.843 213.008 442.904 213.008H437.272L436.12 209.68C438.595 207.461 441.411 205.627 444.568 204.176C447.811 202.725 450.627 202 453.016 202C454.211 202 455.192 202.384 455.96 203.152C456.728 203.92 457.112 204.901 457.112 206.096V219.792H457.88ZM510.939 254.736C510.939 257.637 512.219 259.088 514.779 259.088C516.912 259.088 519.046 258.192 521.179 256.4L523.611 259.728C521.392 262.203 519.003 264.165 516.443 265.616C513.883 267.067 511.494 267.792 509.275 267.792C505.776 267.792 503.259 266.725 501.723 264.592C500.187 262.459 499.419 259.003 499.419 254.224V179.728C499.419 178.704 499.206 177.979 498.779 177.552C498.438 177.125 497.798 176.912 496.859 176.912H491.227L490.075 173.584C492.55 171.365 495.366 169.531 498.523 168.08C501.68 166.629 504.496 165.904 506.971 165.904C508.166 165.904 509.147 166.288 509.915 167.056C510.683 167.824 511.067 168.805 511.067 170L510.939 254.736ZM588.22 254.736C588.22 257.381 589.5 258.704 592.06 258.704C594.193 258.704 596.327 257.936 598.46 256.4L600.892 259.728C598.673 262.203 596.284 264.165 593.724 265.616C591.164 267.067 588.817 267.792 586.684 267.792C583.185 267.792 580.668 266.725 579.132 264.592C577.596 262.459 576.828 259.003 576.828 254.224C573.329 259.173 569.745 262.672 566.076 264.72C562.407 266.768 558.439 267.792 554.172 267.792C550.076 267.792 546.279 266.64 542.78 264.336C539.281 261.947 536.465 258.405 534.332 253.712C532.284 249.019 531.26 243.344 531.26 236.688C531.26 229.349 532.583 222.992 535.228 217.616C537.959 212.155 541.799 207.973 546.748 205.072C551.783 202.171 557.671 200.72 564.412 200.72C568.849 200.72 572.903 201.275 576.572 202.384V179.728C576.572 178.704 576.359 177.979 575.932 177.552C575.591 177.125 574.951 176.912 574.012 176.912H568.38L567.228 173.584C569.703 171.365 572.519 169.531 575.676 168.08C578.919 166.629 581.735 165.904 584.124 165.904C585.319 165.904 586.3 166.288 587.068 167.056C587.836 167.824 588.22 168.805 588.22 170V254.736ZM544.7 234.256C544.7 242.363 546.065 248.336 548.796 252.176C551.612 256.016 555.111 257.936 559.292 257.936C562.705 257.936 565.905 256.997 568.892 255.12C571.879 253.157 574.524 250.213 576.828 246.288V211.728C572.903 209.083 568.721 207.76 564.284 207.76C558.055 207.76 553.233 210.107 549.82 214.8C546.407 219.408 544.7 225.893 544.7 234.256Z" fill="#444444"/>
<path d="M318.96 123L316.591 123.799L317.165 125.5H318.96V123ZM300.144 67.192L302.513 66.3933L300.12 59.2944L297.77 66.408L300.144 67.192ZM281.712 123V125.5H283.519L284.086 123.784L281.712 123ZM267.12 123L264.75 123.797L265.323 125.5H267.12V123ZM242.16 48.76L239.783 49.535L239.787 49.5459L239.79 49.5567L242.16 48.76ZM237.808 39.8L235.848 41.3518L237.808 39.8ZM230.64 33.144L228.7 31.5675L227.068 33.5759L229.131 35.1375L230.64 33.144ZM232.304 31.096V28.596H231.114L230.364 29.5195L232.304 31.096ZM261.104 31.096L263.461 30.2639L262.873 28.596H261.104V31.096ZM262.64 35.448L263.271 37.867L265.903 37.1805L264.997 34.6159L262.64 35.448ZM259.696 36.216L260.302 38.6414L260.315 38.6383L260.327 38.635L259.696 36.216ZM255.216 38.264L253.534 36.4141L253.49 36.4542L253.448 36.4962L255.216 38.264ZM255.344 48.12L257.722 47.3479L257.719 47.3387L257.716 47.3294L255.344 48.12ZM276.208 112.376L273.83 113.148L276.224 120.52L278.589 113.139L276.208 112.376ZM295.28 52.856L297.661 53.6189L297.902 52.8654L297.666 52.1103L295.28 52.856ZM294 48.76L296.386 48.0143L296.382 47.9996L296.377 47.9849L294 48.76ZM282.48 33.144L280.54 31.5675L278.908 33.5759L280.971 35.1375L282.48 33.144ZM284.144 31.096V28.596H282.954L282.204 29.5195L284.144 31.096ZM312.944 31.096L315.301 30.2639L314.713 28.596H312.944V31.096ZM314.48 35.448L315.111 37.867L317.743 37.1805L316.837 34.6159L314.48 35.448ZM311.536 36.216L312.142 38.6414L312.155 38.6383L312.167 38.635L311.536 36.216ZM307.056 38.264L305.374 36.4141L305.33 36.4542L305.288 36.4962L307.056 38.264ZM307.184 48.12L309.562 47.3479L309.559 47.3387L309.556 47.3294L307.184 48.12ZM328.048 112.376L325.67 113.148L328.059 120.504L330.428 113.142L328.048 112.376ZM345.968 56.696L348.348 57.4619L348.351 57.4507L345.968 56.696ZM348.4 44.792H350.9V44.7466L350.898 44.7011L348.4 44.792ZM342.64 36.216L343.312 33.808L343.292 33.8023L343.271 33.797L342.64 36.216ZM339.696 35.448L337.339 34.616L336.433 37.1805L339.065 37.867L339.696 35.448ZM341.232 31.096V28.596H339.463L338.875 30.2639L341.232 31.096ZM365.552 31.096L367.492 29.5195L366.742 28.596H365.552V31.096ZM367.216 33.144L369.137 34.7445L370.454 33.1641L369.156 31.5675L367.216 33.144ZM365.296 35.448L367.209 37.057L367.217 37.0485L365.296 35.448ZM358.256 48.248L360.63 49.0325L360.633 49.0228L360.636 49.013L358.256 48.248ZM333.552 123V125.5H335.359L335.926 123.784L333.552 123ZM321.329 122.201L302.513 66.3933L297.775 67.9907L316.591 123.799L321.329 122.201ZM297.77 66.408L279.338 122.216L284.086 123.784L302.518 67.976L297.77 66.408ZM281.712 120.5H267.12V125.5H281.712V120.5ZM269.49 122.203L244.53 47.9633L239.79 49.5567L264.75 123.797L269.49 122.203ZM244.537 47.9849C243.212 43.9223 241.648 40.6233 239.768 38.2482L235.848 41.3518C237.21 43.0727 238.548 45.747 239.783 49.535L244.537 47.9849ZM239.768 38.2482C237.967 35.9728 235.397 33.609 232.149 31.1505L229.131 35.1375C232.197 37.4576 234.407 39.5312 235.848 41.3518L239.768 38.2482ZM232.58 34.7205L234.244 32.6725L230.364 29.5195L228.7 31.5675L232.58 34.7205ZM232.304 33.596H261.104V28.596H232.304V33.596ZM258.747 31.928L260.283 36.28L264.997 34.6159L263.461 30.2639L258.747 31.928ZM262.009 33.029L259.065 33.797L260.327 38.635L263.271 37.867L262.009 33.029ZM259.09 33.7906C256.876 34.3441 254.918 35.1565 253.534 36.4141L256.898 40.1138C257.392 39.6649 258.42 39.1119 260.302 38.6414L259.09 33.7906ZM253.448 36.4962C252.007 37.9375 251.436 39.8389 251.436 41.848H256.436C256.436 40.7851 256.718 40.2972 256.984 40.0318L253.448 36.4962ZM251.436 41.848C251.436 43.647 252.024 46.0671 252.972 48.9106L257.716 47.3294C256.786 44.5409 256.436 42.7797 256.436 41.848H251.436ZM252.966 48.8921L273.83 113.148L278.586 111.604L257.722 47.3479L252.966 48.8921ZM278.589 113.139L297.661 53.6189L292.899 52.0931L273.827 111.613L278.589 113.139ZM297.666 52.1103L296.386 48.0143L291.614 49.5057L292.894 53.6017L297.666 52.1103ZM296.377 47.9849C295.052 43.9223 293.488 40.6233 291.608 38.2482L287.688 41.3518C289.05 43.0727 290.388 45.747 291.623 49.535L296.377 47.9849ZM291.608 38.2482C289.807 35.9728 287.237 33.609 283.989 31.1505L280.971 35.1375C284.037 37.4576 286.247 39.5312 287.688 41.3518L291.608 38.2482ZM284.42 34.7205L286.084 32.6725L282.204 29.5195L280.54 31.5675L284.42 34.7205ZM284.144 33.596H312.944V28.596H284.144V33.596ZM310.587 31.928L312.123 36.28L316.837 34.6159L315.301 30.2639L310.587 31.928ZM313.849 33.029L310.905 33.797L312.167 38.635L315.111 37.867L313.849 33.029ZM310.93 33.7906C308.716 34.3441 306.758 35.1565 305.374 36.4141L308.738 40.1138C309.232 39.6649 310.26 39.1119 312.142 38.6414L310.93 33.7906ZM305.288 36.4962C303.847 37.9375 303.276 39.8389 303.276 41.848H308.276C308.276 40.7851 308.558 40.2972 308.824 40.0318L305.288 36.4962ZM303.276 41.848C303.276 43.647 303.864 46.0671 304.812 48.9106L309.556 47.3294C308.626 44.5409 308.276 42.7797 308.276 41.848H303.276ZM304.806 48.8921L325.67 113.148L330.426 111.604L309.562 47.3479L304.806 48.8921ZM330.428 113.142L348.348 57.4619L343.588 55.9301L325.668 111.61L330.428 113.142ZM348.351 57.4507C349.993 52.2657 350.9 48.0012 350.9 44.792H345.9C345.9 47.2148 345.185 50.8863 343.585 55.9413L348.351 57.4507ZM350.898 44.7011C350.802 42.0526 350.205 39.6663 348.907 37.7341C347.579 35.7568 345.655 34.4619 343.312 33.808L341.968 38.624C343.294 38.9941 344.165 39.6405 344.757 40.5219C345.379 41.4484 345.827 42.838 345.902 44.8829L350.898 44.7011ZM343.271 33.797L340.327 33.029L339.065 37.867L342.009 38.635L343.271 33.797ZM342.053 36.28L343.589 31.928L338.875 30.2639L337.339 34.616L342.053 36.28ZM341.232 33.596H365.552V28.596H341.232V33.596ZM363.612 32.6725L365.276 34.7205L369.156 31.5675L367.492 29.5195L363.612 32.6725ZM365.295 31.5435L363.375 33.8475L367.217 37.0485L369.137 34.7445L365.295 31.5435ZM363.383 33.839C360.012 37.8479 357.509 42.4027 355.876 47.483L360.636 49.013C362.075 44.536 364.266 40.5575 367.209 37.057L363.383 33.839ZM355.882 47.4635L331.178 122.216L335.926 123.784L360.63 49.0325L355.882 47.4635ZM333.552 120.5H318.96V125.5H333.552V120.5ZM366.472 73.464L364.244 72.3309L364.236 72.346L364.228 72.3612L366.472 73.464ZM377.352 61.816L376.112 59.6454L376.103 59.6502L376.095 59.6551L377.352 61.816ZM410.504 61.816L409.247 63.9769L409.247 63.9769L410.504 61.816ZM421.384 73.464L419.156 74.5971L419.156 74.5971L421.384 73.464ZM421.384 109.048L423.612 110.181L423.616 110.174L423.62 110.166L421.384 109.048ZM410.504 120.696L409.247 118.535L409.247 118.535L410.504 120.696ZM377.352 120.696L376.095 122.857L376.103 122.862L376.112 122.867L377.352 120.696ZM366.472 109.048L364.221 110.136L364.232 110.159L364.244 110.181L366.472 109.048ZM404.488 68.728L402.613 70.3821L402.627 70.3973L402.641 70.4124L404.488 68.728ZM384.776 67.832L386.352 69.7723L386.359 69.7669L384.776 67.832ZM378.376 77.304L380.717 78.1818L380.717 78.1818L378.376 77.304ZM380.808 110.712L378.722 112.09L378.722 112.09L380.808 110.712ZM402.952 114.68L404.491 116.65L404.499 116.644L402.952 114.68ZM409.48 105.464L411.808 106.375L411.811 106.367L411.815 106.358L409.48 105.464ZM365.26 91.256C365.26 84.7301 366.442 79.1919 368.716 74.5668L364.228 72.3612C361.552 77.8054 360.26 84.1286 360.26 91.256H365.26ZM368.7 74.5971C371.052 69.9732 374.349 66.4555 378.609 63.9769L376.095 59.6551C370.968 62.6378 367.012 66.8855 364.244 72.3309L368.7 74.5971ZM378.592 63.9866C382.941 61.5019 388.047 60.22 393.992 60.22V55.22C387.307 55.22 381.321 56.6688 376.112 59.6454L378.592 63.9866ZM393.992 60.22C399.938 60.22 404.994 61.5023 409.247 63.9769L411.761 59.6551C406.628 56.6684 400.676 55.22 393.992 55.22V60.22ZM409.247 63.9769C413.507 66.4555 416.804 69.9732 419.156 74.5971L423.612 72.3309C420.844 66.8855 416.888 62.6378 411.761 59.6551L409.247 63.9769ZM419.156 74.5971C421.504 79.2148 422.724 84.7419 422.724 91.256H427.724C427.724 84.1168 426.384 77.7825 423.612 72.3309L419.156 74.5971ZM422.724 91.256C422.724 97.6779 421.506 103.214 419.148 107.93L423.62 110.166C426.382 104.642 427.724 98.3168 427.724 91.256H422.724ZM419.156 107.915C416.804 112.539 413.507 116.056 409.247 118.535L411.761 122.857C416.888 119.874 420.844 115.627 423.612 110.181L419.156 107.915ZM409.247 118.535C404.994 121.01 399.938 122.292 393.992 122.292V127.292C400.676 127.292 406.628 125.844 411.761 122.857L409.247 118.535ZM393.992 122.292C388.047 122.292 382.941 121.01 378.592 118.525L376.112 122.867C381.321 125.843 387.307 127.292 393.992 127.292V122.292ZM378.609 118.535C374.349 116.056 371.052 112.539 368.7 107.915L364.244 110.181C367.012 115.627 370.968 119.874 376.095 122.857L378.609 118.535ZM368.723 107.96C366.44 103.237 365.26 97.6898 365.26 91.256H360.26C360.26 98.3049 361.555 104.619 364.221 110.136L368.723 107.96ZM414.284 91.64C414.284 87.3967 413.697 83.0851 412.536 78.7109L407.704 79.9931C408.762 83.9816 409.284 87.862 409.284 91.64H414.284ZM412.536 78.7109C411.335 74.1814 409.278 70.2712 406.335 67.0436L402.641 70.4124C404.988 72.9874 406.687 76.1599 407.704 79.9931L412.536 78.7109ZM406.363 67.0739C403.287 63.5877 399.209 61.876 394.376 61.876V66.876C397.905 66.876 400.569 68.0656 402.613 70.3821L406.363 67.0739ZM394.376 61.876C390.205 61.876 386.448 63.2337 383.193 65.8971L386.359 69.7669C388.736 67.8223 391.379 66.876 394.376 66.876V61.876ZM383.2 65.8917C380.05 68.4509 377.689 72.0147 376.035 76.4262L380.717 78.1818C382.135 74.4013 384.041 71.6504 386.352 69.7723L383.2 65.8917ZM376.035 76.4262C374.374 80.8548 373.572 85.8545 373.572 91.384H378.572C378.572 86.3321 379.306 81.9452 380.717 78.1818L376.035 76.4262ZM373.572 91.384C373.572 99.7856 375.204 106.766 378.722 112.09L382.894 109.334C380.097 105.101 378.572 99.1957 378.572 91.384H373.572ZM378.722 112.09C382.306 117.515 387.329 120.38 393.608 120.38V115.38C389.135 115.38 385.624 113.467 382.894 109.334L378.722 112.09ZM393.608 120.38C397.659 120.38 401.316 119.13 404.491 116.65L401.413 112.71C399.126 114.496 396.555 115.38 393.608 115.38V120.38ZM404.499 116.644C407.722 114.105 410.139 110.641 411.808 106.375L407.152 104.553C405.749 108.138 403.814 110.818 401.405 112.716L404.499 116.644ZM411.815 106.358C413.48 102.009 414.284 97.088 414.284 91.64H409.284C409.284 96.6027 408.552 100.898 407.145 104.57L411.815 106.358ZM440.472 73.464L438.244 72.3309L438.236 72.346L438.228 72.3612L440.472 73.464ZM451.352 61.816L450.112 59.6454L450.103 59.6502L450.095 59.6551L451.352 61.816ZM484.504 61.816L483.247 63.9769L483.247 63.9769L484.504 61.816ZM495.384 73.464L493.156 74.5971L493.156 74.5971L495.384 73.464ZM495.384 109.048L497.612 110.181L497.616 110.174L497.62 110.166L495.384 109.048ZM484.504 120.696L483.247 118.535L483.247 118.535L484.504 120.696ZM451.352 120.696L450.095 122.857L450.103 122.862L450.112 122.867L451.352 120.696ZM440.472 109.048L438.221 110.136L438.232 110.159L438.244 110.181L440.472 109.048ZM478.488 68.728L476.613 70.3821L476.627 70.3973L476.641 70.4124L478.488 68.728ZM458.776 67.832L460.352 69.7723L460.359 69.7669L458.776 67.832ZM452.376 77.304L454.717 78.1818L454.717 78.1818L452.376 77.304ZM454.808 110.712L452.722 112.09L452.722 112.09L454.808 110.712ZM476.952 114.68L478.491 116.65L478.499 116.644L476.952 114.68ZM483.48 105.464L485.808 106.375L485.811 106.367L485.815 106.358L483.48 105.464ZM439.26 91.256C439.26 84.7301 440.442 79.1919 442.716 74.5668L438.228 72.3612C435.552 77.8054 434.26 84.1286 434.26 91.256H439.26ZM442.7 74.5971C445.052 69.9732 448.349 66.4555 452.609 63.9769L450.095 59.6551C444.968 62.6378 441.012 66.8855 438.244 72.3309L442.7 74.5971ZM452.592 63.9866C456.941 61.5019 462.047 60.22 467.992 60.22V55.22C461.307 55.22 455.321 56.6688 450.112 59.6454L452.592 63.9866ZM467.992 60.22C473.938 60.22 478.994 61.5023 483.247 63.9769L485.761 59.6551C480.628 56.6684 474.676 55.22 467.992 55.22V60.22ZM483.247 63.9769C487.507 66.4555 490.804 69.9732 493.156 74.5971L497.612 72.3309C494.844 66.8855 490.888 62.6378 485.761 59.6551L483.247 63.9769ZM493.156 74.5971C495.504 79.2148 496.724 84.7419 496.724 91.256H501.724C501.724 84.1168 500.384 77.7825 497.612 72.3309L493.156 74.5971ZM496.724 91.256C496.724 97.6779 495.506 103.214 493.148 107.93L497.62 110.166C500.382 104.642 501.724 98.3168 501.724 91.256H496.724ZM493.156 107.915C490.804 112.539 487.507 116.056 483.247 118.535L485.761 122.857C490.888 119.874 494.844 115.627 497.612 110.181L493.156 107.915ZM483.247 118.535C478.994 121.01 473.938 122.292 467.992 122.292V127.292C474.676 127.292 480.628 125.844 485.761 122.857L483.247 118.535ZM467.992 122.292C462.047 122.292 456.941 121.01 452.592 118.525L450.112 122.867C455.321 125.843 461.307 127.292 467.992 127.292V122.292ZM452.609 118.535C448.349 116.056 445.052 112.539 442.7 107.915L438.244 110.181C441.012 115.627 444.968 119.874 450.095 122.857L452.609 118.535ZM442.723 107.96C440.44 103.237 439.26 97.6898 439.26 91.256H434.26C434.26 98.3049 435.555 104.619 438.221 110.136L442.723 107.96ZM488.284 91.64C488.284 87.3967 487.697 83.0851 486.536 78.7109L481.704 79.9931C482.762 83.9816 483.284 87.862 483.284 91.64H488.284ZM486.536 78.7109C485.335 74.1814 483.278 70.2712 480.335 67.0436L476.641 70.4124C478.988 72.9874 480.687 76.1599 481.704 79.9931L486.536 78.7109ZM480.363 67.0739C477.287 63.5877 473.209 61.876 468.376 61.876V66.876C471.905 66.876 474.569 68.0656 476.613 70.3821L480.363 67.0739ZM468.376 61.876C464.205 61.876 460.448 63.2337 457.193 65.8971L460.359 69.7669C462.736 67.8223 465.379 66.876 468.376 66.876V61.876ZM457.2 65.8917C454.05 68.4509 451.689 72.0147 450.035 76.4262L454.717 78.1818C456.135 74.4013 458.041 71.6504 460.352 69.7723L457.2 65.8917ZM450.035 76.4262C448.374 80.8548 447.572 85.8545 447.572 91.384H452.572C452.572 86.3321 453.306 81.9452 454.717 78.1818L450.035 76.4262ZM447.572 91.384C447.572 99.7856 449.204 106.766 452.722 112.09L456.894 109.334C454.097 105.101 452.572 99.1957 452.572 91.384H447.572ZM452.722 112.09C456.306 117.515 461.329 120.38 467.608 120.38V115.38C463.135 115.38 459.624 113.467 456.894 109.334L452.722 112.09ZM467.608 120.38C471.659 120.38 475.316 119.13 478.491 116.65L475.413 112.71C473.126 114.496 470.555 115.38 467.608 115.38V120.38ZM478.499 116.644C481.722 114.105 484.139 110.641 485.808 106.375L481.152 104.553C479.749 108.138 477.814 110.818 475.405 112.716L478.499 116.644ZM485.815 106.358C487.48 102.009 488.284 97.088 488.284 91.64H483.284C483.284 96.6027 482.552 100.898 481.145 104.57L485.815 106.358ZM577.96 113.4L579.978 111.925L578.514 109.921L576.499 111.371L577.96 113.4ZM580.392 116.728L582.253 118.397L583.606 116.889L582.41 115.253L580.392 116.728ZM573.224 122.616L574.457 124.791L574.457 124.791L573.224 122.616ZM558.632 121.592L560.661 120.131L560.661 120.131L558.632 121.592ZM556.328 111.224H558.828V103.356L554.287 109.781L556.328 111.224ZM545.576 121.72L544.358 119.537L544.358 119.537L545.576 121.72ZM522.28 121.336L520.87 123.401L520.887 123.412L520.905 123.424L522.28 121.336ZM513.832 110.712L511.541 111.712L511.548 111.729L511.556 111.747L513.832 110.712ZM514.728 74.616L512.492 73.498L512.488 73.5051L512.485 73.5122L514.728 74.616ZM526.248 62.072L525 59.9059L524.992 59.9106L524.984 59.9153L526.248 62.072ZM556.072 59.384L555.349 61.777L558.572 62.7516V59.384H556.072ZM555.432 34.552L553.48 36.1137L553.566 36.2219L553.664 36.3198L555.432 34.552ZM547.88 33.912L545.518 34.7298L546.1 36.412H547.88V33.912ZM546.728 30.584L545.059 28.7226L543.822 29.8317L544.366 31.4018L546.728 30.584ZM555.176 25.08L554.155 22.7979L554.144 22.8031L554.132 22.8083L555.176 25.08ZM566.568 24.056L568.336 22.2882L568.336 22.2882L566.568 24.056ZM528.296 109.176L526.259 110.625L526.269 110.64L526.28 110.654L528.296 109.176ZM548.392 112.12L549.722 114.237L549.744 114.223L549.765 114.209L548.392 112.12ZM556.328 103.288L558.484 104.553L558.828 103.967V103.288H556.328ZM556.328 68.728H558.828V67.3981L557.725 66.6548L556.328 68.728ZM529.32 71.8L531.329 73.2881L531.335 73.2793L531.342 73.2704L529.32 71.8ZM565.22 111.736C565.22 113.424 565.627 115.153 566.883 116.451C568.154 117.764 569.873 118.204 571.56 118.204V113.204C570.687 113.204 570.486 112.983 570.477 112.973C570.453 112.949 570.22 112.693 570.22 111.736H565.22ZM571.56 118.204C574.329 118.204 576.962 117.199 579.421 115.429L576.499 111.371C574.691 112.673 573.058 113.204 571.56 113.204V118.204ZM575.942 114.875L578.374 118.203L582.41 115.253L579.978 111.925L575.942 114.875ZM578.531 115.059C576.47 117.358 574.287 119.14 571.991 120.441L574.457 124.791C577.281 123.191 579.877 121.047 582.253 118.397L578.531 115.059ZM571.991 120.441C569.671 121.756 567.752 122.292 566.184 122.292V127.292C568.883 127.292 571.657 126.378 574.457 124.791L571.991 120.441ZM566.184 122.292C563.198 122.292 561.58 121.407 560.661 120.131L556.603 123.053C558.756 126.043 562.172 127.292 566.184 127.292V122.292ZM560.661 120.131C559.594 118.65 558.828 115.852 558.828 111.224H553.828C553.828 116.153 554.598 120.267 556.603 123.053L560.661 120.131ZM554.287 109.781C550.915 114.55 547.589 117.733 544.358 119.537L546.794 123.903C550.901 121.611 554.744 117.796 558.369 112.667L554.287 109.781ZM544.358 119.537C541.067 121.374 537.519 122.292 533.672 122.292V127.292C538.358 127.292 542.747 126.162 546.794 123.903L544.358 119.537ZM533.672 122.292C530.076 122.292 526.755 121.29 523.655 119.248L520.905 123.424C524.802 125.99 529.076 127.292 533.672 127.292V122.292ZM523.69 119.271C520.643 117.191 518.093 114.045 516.108 109.677L511.556 111.747C513.837 116.766 516.92 120.703 520.87 123.401L523.69 119.271ZM516.123 109.712C514.248 105.414 513.26 100.099 513.26 93.688H508.26C508.26 100.589 509.32 106.624 511.541 111.712L516.123 109.712ZM513.26 93.688C513.26 86.6475 514.529 80.6838 516.971 75.7198L512.485 73.5122C509.637 79.3002 508.26 86.0511 508.26 93.688H513.26ZM516.964 75.734C519.493 70.6765 523.008 66.8692 527.512 64.2287L524.984 59.9153C519.589 63.0774 515.425 67.6328 512.492 73.498L516.964 75.734ZM527.496 64.2381C532.094 61.5884 537.538 60.22 543.912 60.22V55.22C536.803 55.22 530.471 56.7529 525 59.9059L527.496 64.2381ZM543.912 60.22C548.142 60.22 551.947 60.7488 555.349 61.777L556.795 56.991C552.858 55.8006 548.557 55.22 543.912 55.22V60.22ZM558.572 59.384V36.728H553.572V59.384H558.572ZM558.572 36.728C558.572 35.4745 558.332 33.9163 557.2 32.7842L553.664 36.3198C553.516 36.1716 553.496 36.0603 553.514 36.1214C553.534 36.1902 553.572 36.3763 553.572 36.728H558.572ZM557.384 32.9903C556.316 31.6547 554.683 31.412 553.512 31.412V36.412C553.654 36.412 553.756 36.4202 553.825 36.4295C553.895 36.4388 553.917 36.4477 553.905 36.4437C553.893 36.4394 553.835 36.4189 553.754 36.366C553.671 36.3114 553.572 36.229 553.48 36.1137L557.384 32.9903ZM553.512 31.412H547.88V36.412H553.512V31.412ZM550.242 33.0942L549.09 29.7662L544.366 31.4018L545.518 34.7298L550.242 33.0942ZM548.397 32.4454C550.677 30.4015 553.28 28.7025 556.22 27.3517L554.132 22.8083C550.758 24.3588 547.729 26.3291 545.059 28.7226L548.397 32.4454ZM556.197 27.362C559.261 25.9913 561.715 25.404 563.624 25.404V20.404C560.754 20.404 557.576 21.2674 554.155 22.7979L556.197 27.362ZM563.624 25.404C564.228 25.404 564.55 25.5737 564.8 25.8238L568.336 22.2882C567.05 21.0023 565.409 20.404 563.624 20.404V25.404ZM564.8 25.8238C565.05 26.0738 565.22 26.3956 565.22 27H570.22C570.22 25.2151 569.622 23.5742 568.336 22.2882L564.8 25.8238ZM565.22 27V111.736H570.22V27H565.22ZM521.7 91.256C521.7 99.5481 523.079 106.153 526.259 110.625L530.333 107.727C528.052 104.519 526.7 99.1772 526.7 91.256H521.7ZM526.28 110.654C529.492 115.034 533.695 117.436 538.792 117.436V112.436C535.526 112.436 532.732 110.998 530.312 107.698L526.28 110.654ZM538.792 117.436C542.692 117.436 546.351 116.356 549.722 114.237L547.062 110.003C544.459 111.639 541.718 112.436 538.792 112.436V117.436ZM549.765 114.209C553.148 111.986 556.037 108.722 558.484 104.553L554.172 102.022C552.011 105.705 549.609 108.328 547.019 110.031L549.765 114.209ZM558.828 103.288V68.728H553.828V103.288H558.828ZM557.725 66.6548C553.416 63.7508 548.753 62.26 543.784 62.26V67.26C547.69 67.26 551.389 68.4145 554.931 70.8012L557.725 66.6548ZM543.784 62.26C536.823 62.26 531.221 64.9358 527.298 70.3296L531.342 73.2704C534.246 69.2775 538.286 67.26 543.784 67.26V62.26ZM527.311 70.3119C523.462 75.5076 521.7 82.5931 521.7 91.256H526.7C526.7 83.1935 528.351 77.3084 531.329 73.2881L527.311 70.3119ZM642.794 113.4L641.026 111.632L640.96 111.698L640.899 111.769L642.794 113.4ZM601.962 120.696L603.272 118.567L603.272 118.567L601.962 120.696ZM591.594 109.176L589.343 110.263L589.35 110.279L589.358 110.294L591.594 109.176ZM592.106 74.104L594.312 75.2805L594.316 75.2729L594.32 75.2654L592.106 74.104ZM603.626 62.072L604.862 64.2449L604.874 64.2381L603.626 62.072ZM633.066 60.408L631.857 62.5961L631.891 62.6149L631.925 62.6325L633.066 60.408ZM640.49 67.32L638.308 68.5395L638.315 68.5535L638.323 68.5674L640.49 67.32ZM639.978 86.904L637.825 85.634L637.812 85.6548L637.801 85.6757L639.978 86.904ZM631.658 95.096L632.876 97.279L632.896 97.2683L632.915 97.2573L631.658 95.096ZM609.386 96.632L610.121 94.2426L610.121 94.2426L609.386 96.632ZM604.906 90.232L602.872 88.7789L602.798 88.8818L602.735 88.9917L604.906 90.232ZM608.874 90.232L607.922 92.5437L607.981 92.5681L608.042 92.5895L608.874 90.232ZM626.41 86.648L624.642 84.8802L624.629 84.8934L624.616 84.9068L626.41 86.648ZM627.562 67.832L625.668 69.4643L625.683 69.4808L625.697 69.497L627.562 67.832ZM605.802 71.416L607.905 72.7679L607.91 72.7595L607.916 72.751L605.802 71.416ZM606.058 109.944L604.053 111.438L604.06 111.447L604.068 111.457L606.058 109.944ZM638.826 109.048L640.578 110.831L640.586 110.823L640.594 110.816L638.826 109.048ZM642.154 109.816L640.296 111.488L640.34 111.537L640.386 111.584L642.154 109.816ZM640.899 111.769C637.976 115.166 634.516 117.759 630.502 119.569L632.558 124.127C637.248 122.012 641.297 118.973 644.689 115.031L640.899 111.769ZM630.502 119.569C626.491 121.378 622.15 122.292 617.45 122.292V127.292C622.819 127.292 627.865 126.243 632.558 124.127L630.502 119.569ZM617.45 122.292C611.963 122.292 607.266 121.025 603.272 118.567L600.652 122.825C605.533 125.829 611.161 127.292 617.45 127.292V122.292ZM603.272 118.567C599.257 116.096 596.11 112.618 593.83 108.058L589.358 110.294C592.027 115.633 595.793 119.835 600.652 122.825L603.272 118.567ZM593.845 108.089C591.647 103.535 590.51 98.2002 590.51 92.024H585.51C585.51 98.8185 586.763 104.919 589.343 110.263L593.845 108.089ZM590.51 92.024C590.51 85.5352 591.806 79.9794 594.312 75.2805L589.9 72.9275C586.945 78.4686 585.51 84.8594 585.51 92.024H590.51ZM594.32 75.2654C596.836 70.4694 600.343 66.8163 604.862 64.2449L602.39 59.8991C597.01 62.9597 592.838 67.3279 589.892 72.9426L594.32 75.2654ZM604.874 64.2381C609.477 61.5857 614.879 60.22 621.162 60.22V55.22C614.133 55.22 607.844 56.7556 602.378 59.9059L604.874 64.2381ZM621.162 60.22C625.543 60.22 629.07 61.0562 631.857 62.5961L634.275 58.2199C630.576 56.1758 626.168 55.22 621.162 55.22V60.22ZM631.925 62.6325C634.871 64.1434 636.956 66.1212 638.308 68.5395L642.672 66.1004C640.781 62.7161 637.917 60.0859 634.207 58.1835L631.925 62.6325ZM638.323 68.5674C639.721 70.9945 640.422 73.6347 640.422 76.536H645.422C645.422 72.7813 644.502 69.2775 642.657 66.0726L638.323 68.5674ZM640.422 76.536C640.422 79.6386 639.579 82.6597 637.825 85.634L642.131 88.174C644.303 84.4923 645.422 80.6014 645.422 76.536H640.422ZM637.801 85.6757C636.165 88.5745 633.73 90.9995 630.401 92.9347L632.915 97.2573C636.925 94.9258 640.036 91.8894 642.155 88.1323L637.801 85.6757ZM630.44 92.913C627.216 94.7123 623.26 95.668 618.474 95.668V100.668C623.928 100.668 628.761 99.5757 632.876 97.279L630.44 92.913ZM618.474 95.668C616.05 95.668 613.273 95.2124 610.121 94.2426L608.651 99.0214C612.155 100.1 615.437 100.668 618.474 100.668V95.668ZM610.121 94.2426C608.63 93.7838 607.766 93.2909 607.312 92.8834C606.927 92.5379 606.894 92.3209 606.894 92.152H601.894C601.894 93.9458 602.693 95.4568 603.972 96.6046C605.182 97.6904 606.814 98.4562 608.651 99.0214L610.121 94.2426ZM606.894 92.152C606.894 91.9079 606.949 91.695 607.077 91.4723L602.735 88.9917C602.18 89.9636 601.894 91.0307 601.894 92.152H606.894ZM606.94 91.6851C607.024 91.5685 607.028 91.6008 606.92 91.6692C606.863 91.7058 606.777 91.7498 606.666 91.7837C606.553 91.818 606.433 91.836 606.314 91.836V86.836C604.683 86.836 603.551 87.828 602.872 88.7789L606.94 91.6851ZM606.314 91.836C606.131 91.836 606.005 91.8124 605.985 91.8086C605.949 91.8021 605.941 91.7986 605.968 91.806C606.024 91.8211 606.136 91.8552 606.32 91.9196C606.685 92.0472 607.213 92.2517 607.922 92.5437L609.826 87.9203C609.084 87.615 608.461 87.3714 607.972 87.2004C607.729 87.1155 607.489 87.0376 607.268 86.978C607.113 86.9363 606.735 86.836 606.314 86.836V91.836ZM608.042 92.5895C609.858 93.2304 612.045 93.5 614.506 93.5V88.5C612.359 88.5 610.792 88.2576 609.706 87.8745L608.042 92.5895ZM614.506 93.5C620.112 93.5 624.799 91.897 628.204 88.3892L624.616 84.9068C622.389 87.2017 619.14 88.5 614.506 88.5V93.5ZM628.178 88.4158C631.524 85.0692 633.262 81.0291 633.262 76.408H628.262C628.262 79.6376 627.098 82.4241 624.642 84.8802L628.178 88.4158ZM633.262 76.408C633.262 72.4921 631.986 69.0337 629.427 66.167L625.697 69.497C627.404 71.409 628.262 73.6679 628.262 76.408H633.262ZM629.456 66.1996C626.763 63.0757 623.029 61.62 618.602 61.62V66.62C621.855 66.62 624.095 67.6389 625.668 69.4643L629.456 66.1996ZM618.602 61.62C612.229 61.62 607.189 64.5385 603.688 70.081L607.916 72.751C610.559 68.5655 614.052 66.62 618.602 66.62V61.62ZM603.699 70.0641C600.258 75.4164 598.694 82.8382 598.694 92.024H603.694C603.694 83.2898 605.202 76.973 607.905 72.7679L603.699 70.0641ZM598.694 92.024C598.694 99.9473 600.383 106.512 604.053 111.438L608.063 108.45C605.248 104.672 603.694 99.29 603.694 92.024H598.694ZM604.068 111.457C607.857 116.442 613.343 118.844 620.138 118.844V113.844C614.645 113.844 610.745 111.979 608.048 108.431L604.068 111.457ZM620.138 118.844C628.244 118.844 635.121 116.194 640.578 110.831L637.074 107.265C632.633 111.63 627.051 113.844 620.138 113.844V118.844ZM640.594 110.816C640.579 110.83 640.512 110.892 640.385 110.949C640.253 111.007 640.109 111.036 639.978 111.036V106.036C638.799 106.036 637.801 106.537 637.058 107.28L640.594 110.816ZM639.978 111.036C639.781 111.036 639.699 110.971 639.766 111.011C639.845 111.057 640.025 111.188 640.296 111.488L644.012 108.144C643.08 107.107 641.728 106.036 639.978 106.036V111.036ZM640.386 111.584C640.82 112.017 640.806 112.226 640.806 112.248H645.806C645.806 110.563 645.024 109.151 643.922 108.048L640.386 111.584ZM640.806 112.248C640.806 112.117 640.835 111.973 640.893 111.841C640.95 111.714 641.012 111.647 641.026 111.632L644.562 115.168C645.305 114.425 645.806 113.427 645.806 112.248H640.806ZM677.008 112.12L674.583 112.726L674.583 112.726L677.008 112.12ZM680.208 119.032L678.153 120.455L678.18 120.494L678.208 120.532L680.208 119.032ZM681.744 121.08L683.696 122.642L684.906 121.129L683.744 119.58L681.744 121.08ZM680.208 123V125.5H681.41L682.16 124.562L680.208 123ZM657.808 123L655.452 123.836L656.042 125.5H657.808V123ZM656.4 119.032L655.821 116.6L653.113 117.245L654.044 119.868L656.4 119.032ZM659.088 118.392L659.667 120.824L659.671 120.823L659.088 118.392ZM663.312 115.704L661.133 114.478L661.119 114.503L661.106 114.528L663.312 115.704ZM663.824 70.648L661.872 72.2097L661.958 72.3179L662.056 72.4158L663.824 70.648ZM656.272 70.008L653.91 70.8258L654.492 72.508H656.272V70.008ZM655.12 66.68L653.451 64.8186L652.214 65.9277L652.758 67.4978L655.12 66.68ZM663.568 61.176L662.547 58.894L662.536 58.8991L662.524 58.9043L663.568 61.176ZM674.96 60.152L676.728 58.3842L676.728 58.3842L674.96 60.152ZM676.112 76.792H673.612L678.433 77.7205L676.112 76.792ZM686.096 63.096L687.667 65.0408L687.667 65.0408L686.096 63.096ZM713.104 63.224L711.098 64.7165L711.098 64.7165L713.104 63.224ZM727.44 113.4L729.458 111.925L727.939 109.845L725.905 111.427L727.44 113.4ZM729.872 116.728L731.733 118.397L733.086 116.889L731.89 115.253L729.872 116.728ZM722.704 122.616L721.471 120.441L721.471 120.441L722.704 122.616ZM707.984 121.592L705.955 123.053L705.955 123.053L707.984 121.592ZM684.944 72.056L683.15 70.3148L683.137 70.3286L683.123 70.3426L684.944 72.056ZM678.416 84.344L676.026 83.6115L676.02 83.6292L676.015 83.647L678.416 84.344ZM673.612 102.52C673.612 106.624 673.915 110.054 674.583 112.726L679.433 111.514C678.907 109.407 678.612 106.437 678.612 102.52H673.612ZM674.583 112.726C675.26 115.435 676.461 118.012 678.153 120.455L682.263 117.609C680.883 115.614 679.951 113.584 679.433 111.514L674.583 112.726ZM678.208 120.532L679.744 122.58L683.744 119.58L682.208 117.532L678.208 120.532ZM679.792 119.518L678.256 121.438L682.16 124.562L683.696 122.642L679.792 119.518ZM680.208 120.5H657.808V125.5H680.208V120.5ZM660.164 122.164L658.756 118.196L654.044 119.868L655.452 123.836L660.164 122.164ZM656.979 121.464L659.667 120.824L658.509 115.96L655.821 116.6L656.979 121.464ZM659.671 120.823C662.142 120.23 664.358 119.056 665.518 116.88L661.106 114.528C660.901 114.912 660.3 115.53 658.505 115.961L659.671 120.823ZM665.491 116.93C666.596 114.965 666.964 112.096 666.964 108.792H661.964C661.964 111.973 661.564 113.713 661.133 114.478L665.491 116.93ZM666.964 108.792V72.824H661.964V108.792H666.964ZM666.964 72.824C666.964 71.5705 666.724 70.0123 665.592 68.8802L662.056 72.4158C661.908 72.2676 661.888 72.1563 661.906 72.2174C661.926 72.2862 661.964 72.4723 661.964 72.824H666.964ZM665.776 69.0863C664.708 67.7507 663.075 67.508 661.904 67.508V72.508C662.046 72.508 662.148 72.5162 662.217 72.5255C662.287 72.5348 662.309 72.5437 662.297 72.5397C662.285 72.5354 662.227 72.5149 662.146 72.462C662.063 72.4074 661.964 72.325 661.872 72.2097L665.776 69.0863ZM661.904 67.508H656.272V72.508H661.904V67.508ZM658.634 69.1902L657.482 65.8622L652.758 67.4978L653.91 70.8258L658.634 69.1902ZM656.789 68.5414C659.069 66.4976 661.672 64.7985 664.612 63.4477L662.524 58.9043C659.15 60.4548 656.121 62.4251 653.451 64.8186L656.789 68.5414ZM664.589 63.458C667.653 62.0873 670.107 61.5 672.016 61.5V56.5C669.146 56.5 665.968 57.3634 662.547 58.894L664.589 63.458ZM672.016 61.5C672.62 61.5 672.942 61.6697 673.192 61.9198L676.728 58.3842C675.442 57.0983 673.801 56.5 672.016 56.5V61.5ZM673.192 61.9198C673.442 62.1698 673.612 62.4916 673.612 63.096H678.612C678.612 61.3111 678.014 59.6702 676.728 58.3842L673.192 61.9198ZM673.612 63.096V76.792H678.612V63.096H673.612ZM678.433 77.7205C680.501 72.5517 683.579 68.343 687.667 65.0408L684.525 61.1511C679.739 65.017 676.161 69.9389 673.791 75.8635L678.433 77.7205ZM687.667 65.0408C691.74 61.7512 695.851 60.22 700.048 60.22V55.22C694.517 55.22 689.327 57.2728 684.525 61.1511L687.667 65.0408ZM700.048 60.22C705.496 60.22 708.978 61.8669 711.098 64.7165L715.11 61.7315C711.769 57.2424 706.547 55.22 700.048 55.22V60.22ZM711.098 64.7165C713.345 67.7348 714.7 72.916 714.7 80.76H719.7C719.7 72.5613 718.325 66.0518 715.11 61.7315L711.098 64.7165ZM714.7 80.76V111.736H719.7V80.76H714.7ZM714.7 111.736C714.7 113.5 715.082 115.291 716.285 116.654C717.541 118.077 719.288 118.588 721.04 118.588V113.588C720.232 113.588 720.059 113.374 720.035 113.346C719.958 113.259 719.7 112.873 719.7 111.736H714.7ZM721.04 118.588C723.772 118.588 726.437 117.347 728.975 115.373L725.905 111.427C723.835 113.037 722.234 113.588 721.04 113.588V118.588ZM725.422 114.875L727.854 118.203L731.89 115.253L729.458 111.925L725.422 114.875ZM728.011 115.059C725.95 117.358 723.767 119.14 721.471 120.441L723.937 124.791C726.761 123.191 729.357 121.047 731.733 118.397L728.011 115.059ZM721.471 120.441C719.169 121.746 717.204 122.292 715.536 122.292V127.292C718.305 127.292 721.119 126.388 723.937 124.791L721.471 120.441ZM715.536 122.292C712.55 122.292 710.932 121.407 710.013 120.131L705.955 123.053C708.108 126.043 711.524 127.292 715.536 127.292V122.292ZM710.013 120.131C708.946 118.65 708.18 115.852 708.18 111.224H703.18C703.18 116.153 703.95 120.267 705.955 123.053L710.013 120.131ZM708.18 111.224V80.76H703.18V111.224H708.18ZM708.18 80.76C708.18 76.1169 707.21 72.1686 704.839 69.3565C702.399 66.4628 698.849 65.204 694.672 65.204V70.204C697.834 70.204 699.787 71.1212 701.017 72.5795C702.315 74.1194 703.18 76.6991 703.18 80.76H708.18ZM694.672 65.204C690.254 65.204 686.384 66.9829 683.15 70.3148L686.738 73.7972C689.136 71.3264 691.751 70.204 694.672 70.204V65.204ZM683.123 70.3426C680.049 73.6097 677.718 78.0886 676.026 83.6115L680.806 85.0765C682.356 80.0181 684.378 76.305 686.765 73.7694L683.123 70.3426ZM676.015 83.647C674.4 89.2106 673.612 95.5113 673.612 102.52H678.612C678.612 95.8753 679.36 90.0587 680.817 85.041L676.015 83.647ZM318.96 266L316.591 266.799L317.165 268.5H318.96V266ZM300.144 210.192L302.513 209.393L300.12 202.294L297.77 209.408L300.144 210.192ZM281.712 266V268.5H283.519L284.086 266.784L281.712 266ZM267.12 266L264.75 266.797L265.323 268.5H267.12V266ZM242.16 191.76L239.783 192.535L239.787 192.546L239.79 192.557L242.16 191.76ZM237.808 182.8L235.848 184.352L237.808 182.8ZM230.64 176.144L228.7 174.568L227.068 176.576L229.131 178.138L230.64 176.144ZM232.304 174.096V171.596H231.114L230.364 172.52L232.304 174.096ZM261.104 174.096L263.461 173.264L262.873 171.596H261.104V174.096ZM262.64 178.448L263.271 180.867L265.903 180.181L264.997 177.616L262.64 178.448ZM259.696 179.216L260.302 181.641L260.315 181.638L260.327 181.635L259.696 179.216ZM255.216 181.264L253.534 179.414L253.49 179.454L253.448 179.496L255.216 181.264ZM255.344 191.12L257.722 190.348L257.719 190.339L257.716 190.329L255.344 191.12ZM276.208 255.376L273.83 256.148L276.224 263.52L278.589 256.139L276.208 255.376ZM295.28 195.856L297.661 196.619L297.902 195.865L297.666 195.11L295.28 195.856ZM294 191.76L296.386 191.014L296.382 191L296.377 190.985L294 191.76ZM282.48 176.144L280.54 174.568L278.908 176.576L280.971 178.138L282.48 176.144ZM284.144 174.096V171.596H282.954L282.204 172.52L284.144 174.096ZM312.944 174.096L315.301 173.264L314.713 171.596H312.944V174.096ZM314.48 178.448L315.111 180.867L317.743 180.181L316.837 177.616L314.48 178.448ZM311.536 179.216L312.142 181.641L312.155 181.638L312.167 181.635L311.536 179.216ZM307.056 181.264L305.374 179.414L305.33 179.454L305.288 179.496L307.056 181.264ZM307.184 191.12L309.562 190.348L309.559 190.339L309.556 190.329L307.184 191.12ZM328.048 255.376L325.67 256.148L328.059 263.504L330.428 256.142L328.048 255.376ZM345.968 199.696L348.348 200.462L348.351 200.451L345.968 199.696ZM348.4 187.792H350.9V187.747L350.898 187.701L348.4 187.792ZM342.64 179.216L343.312 176.808L343.292 176.802L343.271 176.797L342.64 179.216ZM339.696 178.448L337.339 177.616L336.433 180.181L339.065 180.867L339.696 178.448ZM341.232 174.096V171.596H339.463L338.875 173.264L341.232 174.096ZM365.552 174.096L367.492 172.52L366.742 171.596H365.552V174.096ZM367.216 176.144L369.137 177.744L370.454 176.164L369.156 174.568L367.216 176.144ZM365.296 178.448L367.209 180.057L367.217 180.048L365.296 178.448ZM358.256 191.248L360.63 192.032L360.633 192.023L360.636 192.013L358.256 191.248ZM333.552 266V268.5H335.359L335.926 266.784L333.552 266ZM321.329 265.201L302.513 209.393L297.775 210.991L316.591 266.799L321.329 265.201ZM297.77 209.408L279.338 265.216L284.086 266.784L302.518 210.976L297.77 209.408ZM281.712 263.5H267.12V268.5H281.712V263.5ZM269.49 265.203L244.53 190.963L239.79 192.557L264.75 266.797L269.49 265.203ZM244.537 190.985C243.212 186.922 241.648 183.623 239.768 181.248L235.848 184.352C237.21 186.073 238.548 188.747 239.783 192.535L244.537 190.985ZM239.768 181.248C237.967 178.973 235.397 176.609 232.149 174.15L229.131 178.138C232.197 180.458 234.407 182.531 235.848 184.352L239.768 181.248ZM232.58 177.72L234.244 175.672L230.364 172.52L228.7 174.568L232.58 177.72ZM232.304 176.596H261.104V171.596H232.304V176.596ZM258.747 174.928L260.283 179.28L264.997 177.616L263.461 173.264L258.747 174.928ZM262.009 176.029L259.065 176.797L260.327 181.635L263.271 180.867L262.009 176.029ZM259.09 176.791C256.876 177.344 254.918 178.156 253.534 179.414L256.898 183.114C257.392 182.665 258.42 182.112 260.302 181.641L259.09 176.791ZM253.448 179.496C252.007 180.937 251.436 182.839 251.436 184.848H256.436C256.436 183.785 256.718 183.297 256.984 183.032L253.448 179.496ZM251.436 184.848C251.436 186.647 252.024 189.067 252.972 191.911L257.716 190.329C256.786 187.541 256.436 185.78 256.436 184.848H251.436ZM252.966 191.892L273.83 256.148L278.586 254.604L257.722 190.348L252.966 191.892ZM278.589 256.139L297.661 196.619L292.899 195.093L273.827 254.613L278.589 256.139ZM297.666 195.11L296.386 191.014L291.614 192.506L292.894 196.602L297.666 195.11ZM296.377 190.985C295.052 186.922 293.488 183.623 291.608 181.248L287.688 184.352C289.05 186.073 290.388 188.747 291.623 192.535L296.377 190.985ZM291.608 181.248C289.807 178.973 287.237 176.609 283.989 174.15L280.971 178.138C284.037 180.458 286.247 182.531 287.688 184.352L291.608 181.248ZM284.42 177.72L286.084 175.672L282.204 172.52L280.54 174.568L284.42 177.72ZM284.144 176.596H312.944V171.596H284.144V176.596ZM310.587 174.928L312.123 179.28L316.837 177.616L315.301 173.264L310.587 174.928ZM313.849 176.029L310.905 176.797L312.167 181.635L315.111 180.867L313.849 176.029ZM310.93 176.791C308.716 177.344 306.758 178.156 305.374 179.414L308.738 183.114C309.232 182.665 310.26 182.112 312.142 181.641L310.93 176.791ZM305.288 179.496C303.847 180.937 303.276 182.839 303.276 184.848H308.276C308.276 183.785 308.558 183.297 308.824 183.032L305.288 179.496ZM303.276 184.848C303.276 186.647 303.864 189.067 304.812 191.911L309.556 190.329C308.626 187.541 308.276 185.78 308.276 184.848H303.276ZM304.806 191.892L325.67 256.148L330.426 254.604L309.562 190.348L304.806 191.892ZM330.428 256.142L348.348 200.462L343.588 198.93L325.668 254.61L330.428 256.142ZM348.351 200.451C349.993 195.266 350.9 191.001 350.9 187.792H345.9C345.9 190.215 345.185 193.886 343.585 198.941L348.351 200.451ZM350.898 187.701C350.802 185.053 350.205 182.666 348.907 180.734C347.579 178.757 345.655 177.462 343.312 176.808L341.968 181.624C343.294 181.994 344.165 182.64 344.757 183.522C345.379 184.448 345.827 185.838 345.902 187.883L350.898 187.701ZM343.271 176.797L340.327 176.029L339.065 180.867L342.009 181.635L343.271 176.797ZM342.053 179.28L343.589 174.928L338.875 173.264L337.339 177.616L342.053 179.28ZM341.232 176.596H365.552V171.596H341.232V176.596ZM363.612 175.672L365.276 177.72L369.156 174.568L367.492 172.52L363.612 175.672ZM365.295 174.544L363.375 176.848L367.217 180.048L369.137 177.744L365.295 174.544ZM363.383 176.839C360.012 180.848 357.509 185.403 355.876 190.483L360.636 192.013C362.075 187.536 364.266 183.557 367.209 180.057L363.383 176.839ZM355.882 190.464L331.178 265.216L335.926 266.784L360.63 192.032L355.882 190.464ZM333.552 263.5H318.96V268.5H333.552V263.5ZM366.472 216.464L364.244 215.331L364.236 215.346L364.228 215.361L366.472 216.464ZM377.352 204.816L376.112 202.645L376.103 202.65L376.095 202.655L377.352 204.816ZM410.504 204.816L409.247 206.977L409.247 206.977L410.504 204.816ZM421.384 216.464L419.156 217.597L419.156 217.597L421.384 216.464ZM421.384 252.048L423.612 253.181L423.616 253.174L423.62 253.166L421.384 252.048ZM410.504 263.696L409.247 261.535L409.247 261.535L410.504 263.696ZM377.352 263.696L376.095 265.857L376.103 265.862L376.112 265.867L377.352 263.696ZM366.472 252.048L364.221 253.136L364.232 253.159L364.244 253.181L366.472 252.048ZM404.488 211.728L402.613 213.382L402.627 213.397L402.641 213.412L404.488 211.728ZM384.776 210.832L386.352 212.772L386.359 212.767L384.776 210.832ZM378.376 220.304L380.717 221.182L380.717 221.182L378.376 220.304ZM380.808 253.712L378.722 255.09L378.722 255.09L380.808 253.712ZM402.952 257.68L404.491 259.65L404.499 259.644L402.952 257.68ZM409.48 248.464L411.808 249.375L411.811 249.367L411.815 249.358L409.48 248.464ZM365.26 234.256C365.26 227.73 366.442 222.192 368.716 217.567L364.228 215.361C361.552 220.805 360.26 227.129 360.26 234.256H365.26ZM368.7 217.597C371.052 212.973 374.349 209.456 378.609 206.977L376.095 202.655C370.968 205.638 367.012 209.885 364.244 215.331L368.7 217.597ZM378.592 206.987C382.941 204.502 388.047 203.22 393.992 203.22V198.22C387.307 198.22 381.321 199.669 376.112 202.645L378.592 206.987ZM393.992 203.22C399.938 203.22 404.994 204.502 409.247 206.977L411.761 202.655C406.628 199.668 400.676 198.22 393.992 198.22V203.22ZM409.247 206.977C413.507 209.456 416.804 212.973 419.156 217.597L423.612 215.331C420.844 209.885 416.888 205.638 411.761 202.655L409.247 206.977ZM419.156 217.597C421.504 222.215 422.724 227.742 422.724 234.256H427.724C427.724 227.117 426.384 220.782 423.612 215.331L419.156 217.597ZM422.724 234.256C422.724 240.678 421.506 246.214 419.148 250.93L423.62 253.166C426.382 247.642 427.724 241.317 427.724 234.256H422.724ZM419.156 250.915C416.804 255.539 413.507 259.056 409.247 261.535L411.761 265.857C416.888 262.874 420.844 258.627 423.612 253.181L419.156 250.915ZM409.247 261.535C404.994 264.01 399.938 265.292 393.992 265.292V270.292C400.676 270.292 406.628 268.844 411.761 265.857L409.247 261.535ZM393.992 265.292C388.047 265.292 382.941 264.01 378.592 261.525L376.112 265.867C381.321 268.843 387.307 270.292 393.992 270.292V265.292ZM378.609 261.535C374.349 259.056 371.052 255.539 368.7 250.915L364.244 253.181C367.012 258.627 370.968 262.874 376.095 265.857L378.609 261.535ZM368.723 250.96C366.44 246.237 365.26 240.69 365.26 234.256H360.26C360.26 241.305 361.555 247.619 364.221 253.136L368.723 250.96ZM414.284 234.64C414.284 230.397 413.697 226.085 412.536 221.711L407.704 222.993C408.762 226.982 409.284 230.862 409.284 234.64H414.284ZM412.536 221.711C411.335 217.181 409.278 213.271 406.335 210.044L402.641 213.412C404.988 215.987 406.687 219.16 407.704 222.993L412.536 221.711ZM406.363 210.074C403.287 206.588 399.209 204.876 394.376 204.876V209.876C397.905 209.876 400.569 211.066 402.613 213.382L406.363 210.074ZM394.376 204.876C390.205 204.876 386.448 206.234 383.193 208.897L386.359 212.767C388.736 210.822 391.379 209.876 394.376 209.876V204.876ZM383.2 208.892C380.05 211.451 377.689 215.015 376.035 219.426L380.717 221.182C382.135 217.401 384.041 214.65 386.352 212.772L383.2 208.892ZM376.035 219.426C374.374 223.855 373.572 228.855 373.572 234.384H378.572C378.572 229.332 379.306 224.945 380.717 221.182L376.035 219.426ZM373.572 234.384C373.572 242.786 375.204 249.766 378.722 255.09L382.894 252.334C380.097 248.101 378.572 242.196 378.572 234.384H373.572ZM378.722 255.09C382.306 260.515 387.329 263.38 393.608 263.38V258.38C389.135 258.38 385.624 256.467 382.894 252.334L378.722 255.09ZM393.608 263.38C397.659 263.38 401.316 262.13 404.491 259.65L401.413 255.71C399.126 257.496 396.555 258.38 393.608 258.38V263.38ZM404.499 259.644C407.722 257.105 410.139 253.641 411.808 249.375L407.152 247.553C405.749 251.138 403.814 253.818 401.405 255.716L404.499 259.644ZM411.815 249.358C413.48 245.009 414.284 240.088 414.284 234.64H409.284C409.284 239.603 408.552 243.898 407.145 247.57L411.815 249.358ZM457.88 219.792V222.292H459.825L460.303 220.407L457.88 219.792ZM464.536 205.968L462.657 204.318L462.646 204.332L462.635 204.345L464.536 205.968ZM483.352 204.304L481.552 206.039L481.584 206.072L481.617 206.104L483.352 204.304ZM472.984 221.968L470.984 220.468L470.942 220.524L470.904 220.581L472.984 221.968ZM474.776 218.768L472.506 217.72L472.472 217.794L472.443 217.871L474.776 218.768ZM474.264 211.472L472.329 213.055L472.408 213.152L472.496 213.24L474.264 211.472ZM464.92 213.776L463.059 212.107L463.055 212.111L464.92 213.776ZM459.416 225.552L461.82 226.239L461.823 226.229L459.416 225.552ZM458.008 255.376L455.583 255.982L455.585 255.993L455.588 256.003L458.008 255.376ZM461.208 262.032L459.179 263.493L459.193 263.513L459.208 263.532L461.208 262.032ZM462.744 264.08L464.696 265.642L465.906 264.129L464.744 262.58L462.744 264.08ZM461.208 266V268.5H462.41L463.16 267.562L461.208 266ZM438.808 266L436.452 266.836L437.042 268.5H438.808V266ZM437.4 262.032L436.821 259.6L434.113 260.245L435.044 262.868L437.4 262.032ZM440.088 261.392L440.667 263.824L440.671 263.823L440.088 261.392ZM444.312 258.704L442.133 257.478L442.119 257.503L442.106 257.528L444.312 258.704ZM444.824 213.648L442.872 215.21L442.958 215.318L443.056 215.416L444.824 213.648ZM437.272 213.008L434.91 213.826L435.492 215.508H437.272V213.008ZM436.12 209.68L434.451 207.819L433.214 208.928L433.758 210.498L436.12 209.68ZM444.568 204.176L443.547 201.894L443.536 201.899L443.524 201.904L444.568 204.176ZM455.96 203.152L457.728 201.384L457.728 201.384L455.96 203.152ZM457.112 219.792H454.612V222.292H457.112V219.792ZM460.303 220.407C461.685 214.96 463.76 210.728 466.437 207.591L462.635 204.345C459.339 208.206 456.976 213.19 455.457 219.177L460.303 220.407ZM466.415 207.618C469.163 204.487 471.857 203.22 474.52 203.22V198.22C470.015 198.22 466.053 200.451 462.657 204.318L466.415 207.618ZM474.52 203.22C477.485 203.22 479.76 204.18 481.552 206.039L485.152 202.569C482.336 199.649 478.723 198.22 474.52 198.22V203.22ZM481.617 206.104C483.418 207.84 484.436 210.292 484.436 213.776H489.436C489.436 209.238 488.065 205.376 485.087 202.504L481.617 206.104ZM484.436 213.776C484.436 216.319 483.534 218.387 481.651 220.136L485.053 223.8C487.949 221.111 489.436 217.718 489.436 213.776H484.436ZM481.651 220.136C479.771 221.881 477.413 222.796 474.392 222.796V227.796C478.539 227.796 482.154 226.492 485.053 223.8L481.651 220.136ZM474.392 222.796C474.1 222.796 473.91 222.774 473.802 222.753C473.689 222.731 473.718 222.721 473.821 222.78C473.939 222.849 474.129 222.997 474.279 223.257C474.428 223.516 474.46 223.754 474.46 223.888H469.46C469.46 225.247 470.136 226.425 471.315 227.108C472.287 227.67 473.422 227.796 474.392 227.796V222.796ZM474.46 223.888C474.46 224.117 474.424 224.287 474.406 224.363C474.385 224.448 474.365 224.501 474.36 224.514C474.352 224.536 474.364 224.502 474.422 224.392C474.537 224.177 474.742 223.838 475.064 223.355L470.904 220.581C470.544 221.122 470.237 221.615 470.01 222.04C469.898 222.25 469.782 222.488 469.688 222.734C469.614 222.927 469.46 223.359 469.46 223.888H474.46ZM474.984 223.468C475.88 222.274 476.594 221.006 477.109 219.665L472.443 217.871C472.105 218.749 471.624 219.614 470.984 220.468L474.984 223.468ZM477.046 219.816C477.726 218.341 478.044 216.74 478.044 215.056H473.044C473.044 216.102 472.85 216.976 472.506 217.72L477.046 219.816ZM478.044 215.056C478.044 213.047 477.473 211.145 476.032 209.704L472.496 213.24C472.762 213.505 473.044 213.993 473.044 215.056H478.044ZM476.199 209.889C474.964 208.38 473.278 207.564 471.32 207.564V212.564C471.752 212.564 472.028 212.687 472.329 213.055L476.199 209.889ZM471.32 207.564C468.222 207.564 465.464 209.424 463.059 212.107L466.781 215.445C468.813 213.179 470.322 212.564 471.32 212.564V207.564ZM463.055 212.111C460.542 214.925 458.581 219.288 457.009 224.875L461.823 226.229C463.323 220.893 465.031 217.405 466.785 215.441L463.055 212.111ZM457.012 224.865C455.39 230.544 454.612 237.622 454.612 246.032H459.612C459.612 237.887 460.37 231.312 461.82 226.239L457.012 224.865ZM454.612 246.032C454.612 249.976 454.916 253.317 455.583 255.982L460.433 254.77C459.905 252.657 459.612 249.768 459.612 246.032H454.612ZM455.588 256.003C456.271 258.637 457.481 261.134 459.179 263.493L463.237 260.571C461.863 258.663 460.94 256.723 460.428 254.749L455.588 256.003ZM459.208 263.532L460.744 265.58L464.744 262.58L463.208 260.532L459.208 263.532ZM460.792 262.518L459.256 264.438L463.16 267.562L464.696 265.642L460.792 262.518ZM461.208 263.5H438.808V268.5H461.208V263.5ZM441.164 265.164L439.756 261.196L435.044 262.868L436.452 266.836L441.164 265.164ZM437.979 264.464L440.667 263.824L439.509 258.96L436.821 259.6L437.979 264.464ZM440.671 263.823C443.142 263.23 445.358 262.056 446.518 259.88L442.106 257.528C441.901 257.912 441.3 258.53 439.505 258.961L440.671 263.823ZM446.491 259.93C447.596 257.965 447.964 255.096 447.964 251.792H442.964C442.964 254.973 442.564 256.713 442.133 257.478L446.491 259.93ZM447.964 251.792V215.824H442.964V251.792H447.964ZM447.964 215.824C447.964 214.57 447.724 213.012 446.592 211.88L443.056 215.416C442.908 215.268 442.888 215.156 442.906 215.217C442.926 215.286 442.964 215.472 442.964 215.824H447.964ZM446.776 212.086C445.708 210.751 444.075 210.508 442.904 210.508V215.508C443.046 215.508 443.148 215.516 443.217 215.525C443.287 215.535 443.309 215.544 443.297 215.54C443.285 215.535 443.227 215.515 443.146 215.462C443.063 215.407 442.964 215.325 442.872 215.21L446.776 212.086ZM442.904 210.508H437.272V215.508H442.904V210.508ZM439.634 212.19L438.482 208.862L433.758 210.498L434.91 213.826L439.634 212.19ZM437.789 211.541C440.069 209.498 442.672 207.798 445.612 206.448L443.524 201.904C440.15 203.455 437.121 205.425 434.451 207.819L437.789 211.541ZM445.589 206.458C448.653 205.087 451.107 204.5 453.016 204.5V199.5C450.146 199.5 446.968 200.363 443.547 201.894L445.589 206.458ZM453.016 204.5C453.62 204.5 453.942 204.67 454.192 204.92L457.728 201.384C456.442 200.098 454.801 199.5 453.016 199.5V204.5ZM454.192 204.92C454.442 205.17 454.612 205.492 454.612 206.096H459.612C459.612 204.311 459.014 202.67 457.728 201.384L454.192 204.92ZM454.612 206.096V219.792H459.612V206.096H454.612ZM457.112 222.292H457.88V217.292H457.112V222.292ZM510.939 254.736L508.439 254.732V254.736H510.939ZM521.179 256.4L523.197 254.925L521.619 252.765L519.571 254.486L521.179 256.4ZM523.611 259.728L525.472 261.397L526.825 259.889L525.629 258.253L523.611 259.728ZM516.443 265.616L517.676 267.791L517.676 267.791L516.443 265.616ZM501.723 264.592L499.694 266.053L501.723 264.592ZM498.779 177.552L496.827 179.114L496.913 179.222L497.011 179.32L498.779 177.552ZM491.227 176.912L488.865 177.73L489.447 179.412H491.227V176.912ZM490.075 173.584L488.406 171.723L487.169 172.832L487.713 174.402L490.075 173.584ZM498.523 168.08L499.567 170.352L499.567 170.352L498.523 168.08ZM511.067 170L513.567 170.004V170H511.067ZM508.439 254.736C508.439 256.5 508.821 258.291 510.024 259.654C511.28 261.077 513.027 261.588 514.779 261.588V256.588C513.971 256.588 513.798 256.374 513.774 256.346C513.697 256.259 513.439 255.873 513.439 254.736H508.439ZM514.779 261.588C517.66 261.588 520.343 260.367 522.787 258.314L519.571 254.486C517.748 256.017 516.164 256.588 514.779 256.588V261.588ZM519.161 257.875L521.593 261.203L525.629 258.253L523.197 254.925L519.161 257.875ZM521.75 258.059C519.689 260.358 517.506 262.14 515.21 263.441L517.676 267.791C520.5 266.191 523.096 264.047 525.472 261.397L521.75 258.059ZM515.21 263.441C512.908 264.746 510.943 265.292 509.275 265.292V270.292C512.044 270.292 514.858 269.388 517.676 267.791L515.21 263.441ZM509.275 265.292C506.289 265.292 504.671 264.407 503.752 263.131L499.694 266.053C501.847 269.043 505.263 270.292 509.275 270.292V265.292ZM503.752 263.131C502.685 261.65 501.919 258.852 501.919 254.224H496.919C496.919 259.153 497.689 263.267 499.694 266.053L503.752 263.131ZM501.919 254.224V179.728H496.919V254.224H501.919ZM501.919 179.728C501.919 178.474 501.679 176.916 500.547 175.784L497.011 179.32C496.863 179.172 496.843 179.06 496.861 179.121C496.881 179.19 496.919 179.376 496.919 179.728H501.919ZM500.731 175.99C499.663 174.655 498.03 174.412 496.859 174.412V179.412C497.001 179.412 497.103 179.42 497.172 179.429C497.242 179.439 497.264 179.448 497.252 179.444C497.24 179.439 497.182 179.419 497.101 179.366C497.018 179.311 496.919 179.229 496.827 179.114L500.731 175.99ZM496.859 174.412H491.227V179.412H496.859V174.412ZM493.589 176.094L492.437 172.766L487.713 174.402L488.865 177.73L493.589 176.094ZM491.744 175.445C494.024 173.402 496.627 171.702 499.567 170.352L497.479 165.808C494.105 167.359 491.076 169.329 488.406 171.723L491.744 175.445ZM499.567 170.352C502.52 168.995 504.971 168.404 506.971 168.404V163.404C504.021 163.404 500.84 164.264 497.479 165.808L499.567 170.352ZM506.971 168.404C507.575 168.404 507.897 168.574 508.147 168.824L511.683 165.288C510.397 164.002 508.756 163.404 506.971 163.404V168.404ZM508.147 168.824C508.397 169.074 508.567 169.396 508.567 170H513.567C513.567 168.215 512.969 166.574 511.683 165.288L508.147 168.824ZM508.567 169.996L508.439 254.732L513.439 254.74L513.567 170.004L508.567 169.996ZM598.46 256.4L600.478 254.925L599.014 252.921L596.999 254.371L598.46 256.4ZM600.892 259.728L602.753 261.397L604.106 259.889L602.91 258.253L600.892 259.728ZM593.724 265.616L594.957 267.791L594.957 267.791L593.724 265.616ZM579.132 264.592L581.161 263.131L581.161 263.131L579.132 264.592ZM576.828 254.224H579.328V246.356L574.787 252.781L576.828 254.224ZM566.076 264.72L564.858 262.537L564.858 262.537L566.076 264.72ZM542.78 264.336L541.37 266.401L541.387 266.412L541.405 266.424L542.78 264.336ZM534.332 253.712L532.041 254.712L532.048 254.729L532.056 254.747L534.332 253.712ZM535.228 217.616L532.992 216.498L532.988 216.505L532.985 216.512L535.228 217.616ZM546.748 205.072L545.5 202.906L545.492 202.911L545.484 202.915L546.748 205.072ZM576.572 202.384L575.849 204.777L579.072 205.752V202.384H576.572ZM575.932 177.552L573.98 179.114L574.066 179.222L574.164 179.32L575.932 177.552ZM568.38 176.912L566.018 177.73L566.6 179.412H568.38V176.912ZM567.228 173.584L565.559 171.723L564.322 172.832L564.866 174.402L567.228 173.584ZM575.676 168.08L574.655 165.798L574.644 165.803L574.632 165.808L575.676 168.08ZM587.068 167.056L588.836 165.288L588.836 165.288L587.068 167.056ZM548.796 252.176L546.759 253.625L546.769 253.64L546.78 253.654L548.796 252.176ZM568.892 255.12L570.222 257.237L570.244 257.223L570.265 257.209L568.892 255.12ZM576.828 246.288L578.984 247.553L579.328 246.967V246.288H576.828ZM576.828 211.728H579.328V210.398L578.225 209.655L576.828 211.728ZM549.82 214.8L551.829 216.288L551.835 216.279L551.842 216.27L549.82 214.8ZM585.72 254.736C585.72 256.424 586.127 258.153 587.383 259.451C588.654 260.764 590.373 261.204 592.06 261.204V256.204C591.187 256.204 590.986 255.983 590.977 255.973C590.953 255.949 590.72 255.693 590.72 254.736H585.72ZM592.06 261.204C594.829 261.204 597.462 260.199 599.921 258.429L596.999 254.371C595.191 255.673 593.558 256.204 592.06 256.204V261.204ZM596.442 257.875L598.874 261.203L602.91 258.253L600.478 254.925L596.442 257.875ZM599.031 258.059C596.97 260.358 594.787 262.14 592.491 263.441L594.957 267.791C597.781 266.191 600.377 264.047 602.753 261.397L599.031 258.059ZM592.491 263.441C590.171 264.756 588.252 265.292 586.684 265.292V270.292C589.383 270.292 592.157 269.378 594.957 267.791L592.491 263.441ZM586.684 265.292C583.698 265.292 582.08 264.407 581.161 263.131L577.103 266.053C579.256 269.043 582.672 270.292 586.684 270.292V265.292ZM581.161 263.131C580.094 261.65 579.328 258.852 579.328 254.224H574.328C574.328 259.153 575.098 263.267 577.103 266.053L581.161 263.131ZM574.787 252.781C571.415 257.55 568.089 260.733 564.858 262.537L567.294 266.903C571.401 264.611 575.244 260.796 578.869 255.667L574.787 252.781ZM564.858 262.537C561.567 264.374 558.019 265.292 554.172 265.292V270.292C558.858 270.292 563.247 269.162 567.294 266.903L564.858 262.537ZM554.172 265.292C550.576 265.292 547.255 264.29 544.155 262.248L541.405 266.424C545.302 268.99 549.576 270.292 554.172 270.292V265.292ZM544.19 262.271C541.143 260.191 538.593 257.045 536.608 252.677L532.056 254.747C534.337 259.766 537.42 263.703 541.37 266.401L544.19 262.271ZM536.623 252.712C534.748 248.414 533.76 243.099 533.76 236.688H528.76C528.76 243.589 529.82 249.624 532.041 254.712L536.623 252.712ZM533.76 236.688C533.76 229.648 535.029 223.684 537.471 218.72L532.985 216.512C530.137 222.3 528.76 229.051 528.76 236.688H533.76ZM537.464 218.734C539.993 213.677 543.508 209.869 548.012 207.229L545.484 202.915C540.089 206.077 535.925 210.633 532.992 216.498L537.464 218.734ZM547.996 207.238C552.594 204.588 558.038 203.22 564.412 203.22V198.22C557.303 198.22 550.971 199.753 545.5 202.906L547.996 207.238ZM564.412 203.22C568.642 203.22 572.447 203.749 575.849 204.777L577.295 199.991C573.358 198.801 569.057 198.22 564.412 198.22V203.22ZM579.072 202.384V179.728H574.072V202.384H579.072ZM579.072 179.728C579.072 178.474 578.832 176.916 577.7 175.784L574.164 179.32C574.016 179.172 573.996 179.06 574.014 179.121C574.034 179.19 574.072 179.376 574.072 179.728H579.072ZM577.884 175.99C576.816 174.655 575.183 174.412 574.012 174.412V179.412C574.154 179.412 574.256 179.42 574.325 179.429C574.395 179.439 574.417 179.448 574.405 179.444C574.393 179.439 574.335 179.419 574.254 179.366C574.171 179.311 574.072 179.229 573.98 179.114L577.884 175.99ZM574.012 174.412H568.38V179.412H574.012V174.412ZM570.742 176.094L569.59 172.766L564.866 174.402L566.018 177.73L570.742 176.094ZM568.897 175.445C571.177 173.402 573.78 171.702 576.72 170.352L574.632 165.808C571.258 167.359 568.229 169.329 565.559 171.723L568.897 175.445ZM576.697 170.362C579.761 168.991 582.215 168.404 584.124 168.404V163.404C581.254 163.404 578.076 164.267 574.655 165.798L576.697 170.362ZM584.124 168.404C584.728 168.404 585.05 168.574 585.3 168.824L588.836 165.288C587.55 164.002 585.909 163.404 584.124 163.404V168.404ZM585.3 168.824C585.55 169.074 585.72 169.396 585.72 170H590.72C590.72 168.215 590.122 166.574 588.836 165.288L585.3 168.824ZM585.72 170V254.736H590.72V170H585.72ZM542.2 234.256C542.2 242.548 543.579 249.153 546.759 253.625L550.833 250.727C548.552 247.519 547.2 242.177 547.2 234.256H542.2ZM546.78 253.654C549.992 258.034 554.195 260.436 559.292 260.436V255.436C556.026 255.436 553.232 253.998 550.812 250.698L546.78 253.654ZM559.292 260.436C563.192 260.436 566.851 259.356 570.222 257.237L567.562 253.003C564.959 254.639 562.218 255.436 559.292 255.436V260.436ZM570.265 257.209C573.648 254.986 576.537 251.722 578.984 247.553L574.672 245.022C572.511 248.705 570.109 251.328 567.519 253.031L570.265 257.209ZM579.328 246.288V211.728H574.328V246.288H579.328ZM578.225 209.655C573.916 206.751 569.253 205.26 564.284 205.26V210.26C568.19 210.26 571.889 211.415 575.431 213.801L578.225 209.655ZM564.284 205.26C557.323 205.26 551.721 207.936 547.798 213.33L551.842 216.27C554.746 212.278 558.786 210.26 564.284 210.26V205.26ZM547.811 213.312C543.962 218.508 542.2 225.593 542.2 234.256H547.2C547.2 226.194 548.851 220.308 551.829 216.288L547.811 213.312Z" fill="#444444"/>
<path d="M194.085 191.84C193.852 191.507 176.78 171.667 176.78 171.667C182.983 167.097 187.165 160.294 188.443 152.696C189.721 145.099 187.993 137.302 183.626 130.954C183.349 130.554 162.675 107.714 162.675 107.714C167.847 105.106 172.063 100.932 174.724 95.7877C177.012 91.381 178.04 86.4283 177.695 81.4748C177.35 76.5213 175.645 71.759 172.767 67.7122C172.534 67.3566 120.94 8.96038 120.94 8.96038C118.234 6.12828 114.981 3.87413 111.379 2.33407C107.777 0.794007 103.901 0 99.9833 0C96.066 0 92.1893 0.794007 88.5874 2.33407C84.9855 3.87413 81.7331 6.12828 79.0267 8.96038C79.0267 8.96038 27.4216 67.3565 27.1882 67.69C24.3107 71.7368 22.6055 76.499 22.2604 81.4525C21.9153 86.4061 22.9435 91.3588 25.232 95.7655C27.8925 100.91 32.1088 105.084 37.2802 107.691C37.2802 107.691 16.6182 130.532 16.3292 130.932C11.9622 137.279 10.2349 145.076 11.5126 152.674C12.7904 160.272 16.9729 167.075 23.1758 171.645C23.1758 171.645 6.10373 191.485 5.87032 191.84C2.42976 196.843 0.420433 202.69 0.059107 208.751C-0.302219 214.812 0.998169 220.856 3.81999 226.232C6.64181 231.608 10.878 236.111 16.0714 239.257C21.2649 242.402 27.2185 244.069 33.2901 244.079H88.8632V255.193C88.8632 258.141 90.0342 260.968 92.1186 263.053C94.203 265.137 97.03 266.308 99.9778 266.308C102.926 266.308 105.753 265.137 107.837 263.053C109.921 260.968 111.092 258.141 111.092 255.193V244.079H166.665C172.741 244.077 178.7 242.416 183.9 239.274C189.1 236.132 193.343 231.629 196.17 226.252C198.997 220.874 200.301 214.827 199.942 208.762C199.582 202.697 197.572 196.846 194.13 191.84H194.085ZM176.469 215.926C175.541 217.722 174.134 219.226 172.404 220.272C170.673 221.318 168.687 221.864 166.665 221.85H33.2901C31.3059 221.852 29.3571 221.324 27.6462 220.319C25.9352 219.314 24.5244 217.87 23.5603 216.135C22.5962 214.401 22.114 212.441 22.1636 210.457C22.2133 208.473 22.793 206.539 23.8427 204.855L47.5724 177.391H111.092C114.04 177.391 116.867 176.22 118.952 174.136C121.036 172.051 122.207 169.224 122.207 166.277C122.207 163.329 121.036 160.502 118.952 158.417C116.867 156.333 114.04 155.162 111.092 155.162H40.7369C39.436 155.162 38.158 154.82 37.0312 154.17C35.9045 153.52 34.9686 152.585 34.3176 151.458C33.6667 150.332 33.3235 149.054 33.3226 147.754C33.3217 146.453 33.6632 145.175 34.3126 144.047L64.5666 110.704H99.9778C102.926 110.704 105.753 109.533 107.837 107.448C109.921 105.364 111.092 102.537 111.092 99.5889C111.092 96.6411 109.921 93.8141 107.837 91.7297C105.753 89.6453 102.926 88.4743 99.9778 88.4743H49.962C48.9342 88.5107 47.9173 88.2542 47.0298 87.7347C46.1423 87.2152 45.4207 86.454 44.9493 85.5401C44.5561 84.8248 44.3593 84.0181 44.3788 83.2021C44.3983 82.3861 44.6335 81.5898 45.0605 80.8941L95.6542 23.665C96.1843 23.0436 96.8428 22.5445 97.5845 22.2023C98.3261 21.8601 99.1332 21.6829 99.95 21.6829C100.767 21.6829 101.574 21.8601 102.316 22.2023C103.057 22.5445 103.716 23.0436 104.246 23.665L154.817 80.883C155.247 81.5773 155.485 82.3732 155.506 83.1895C155.528 84.0057 155.332 84.813 154.94 85.5289C154.475 86.4346 153.764 87.1911 152.89 87.7119C152.015 88.2328 151.011 88.497 149.994 88.4743H140.346C138.207 88.5039 136.121 89.1466 134.336 90.3262C132.551 91.5058 131.142 93.1728 130.276 95.1293C129.41 97.0858 129.123 99.2496 129.451 101.364C129.778 103.478 130.705 105.455 132.121 107.058L165.643 144.047C166.292 145.175 166.634 146.453 166.633 147.754C166.632 149.054 166.289 150.332 165.638 151.458C164.987 152.585 164.051 153.52 162.924 154.17C161.798 154.82 160.52 155.162 159.219 155.162H157.474C155.359 155.194 153.297 155.825 151.527 156.981C149.756 158.137 148.349 159.77 147.469 161.693C146.588 163.615 146.27 165.748 146.552 167.844C146.834 169.939 147.703 171.913 149.06 173.534L176.068 204.855C177.116 206.493 177.706 208.382 177.776 210.325C177.846 212.268 177.395 214.194 176.469 215.903V215.926Z" fill="url(#paint0_linear_3_17)"/>
<defs>
<linearGradient id="paint0_linear_3_17" x1="58.5" y1="10" x2="126" y2="209.5" gradientUnits="userSpaceOnUse">
<stop stop-color="#FF8038"/>
<stop offset="0.0001" stop-color="#FF7E35"/>
<stop offset="1" stop-color="#FFC3A2"/>
</linearGradient>
</defs>
</svg>
