<svg width="1080" height="1080" viewBox="0 0 1080 1080" fill="none" xmlns="http://www.w3.org/2000/svg">
<path d="M841.207 56.5751C933.029 107.414 1009.55 193.648 1048.72 294.683C1087.29 395.719 1088.51 511.555 1061.58 614.521C1035.26 717.487 980.776 808.225 915.889 890.598C850.389 972.97 774.483 1048.26 686.946 1071.43C598.796 1094.6 499.016 1066.28 394.951 1039.9C290.886 1013.51 183.148 989.059 115.199 920.2C47.251 851.986 19.7044 738.723 6.84925 625.461C-6.00586 512.199 -4.16944 398.293 42.3538 312.059C88.2649 225.181 178.863 165.333 268.849 113.85C358.222 62.3668 447.596 19.25 545.539 5.09217C643.483 -9.06562 749.997 5.73571 841.207 56.5751Z" fill="url(#paint0_linear_8_5)"/>
<path d="M841.207 56.5751C933.029 107.414 1009.55 193.648 1048.72 294.683C1087.29 395.719 1088.51 511.555 1061.58 614.521C1035.26 717.487 980.776 808.225 915.889 890.598C850.389 972.97 774.483 1048.26 686.946 1071.43C598.796 1094.6 499.016 1066.28 394.951 1039.9C290.886 1013.51 183.148 989.059 115.199 920.2C47.251 851.986 19.7044 738.723 6.84925 625.461C-6.00586 512.199 -4.16944 398.293 42.3538 312.059C88.2649 225.181 178.863 165.333 268.849 113.85C358.222 62.3668 447.596 19.25 545.539 5.09217C643.483 -9.06562 749.997 5.73571 841.207 56.5751Z" fill="url(#paint1_linear_8_5)"/>
<defs>
<linearGradient id="paint0_linear_8_5" x1="1134" y1="625" x2="273.5" y2="-301" gradientUnits="userSpaceOnUse">
<stop stop-color="#4E22FF"/>
<stop offset="1" stop-color="#4AF4FF"/>
</linearGradient>
<linearGradient id="paint1_linear_8_5" x1="1407.5" y1="-559.5" x2="-270" y2="427" gradientUnits="userSpaceOnUse">
<stop offset="0.259986" stop-color="#35FFF3"/>
<stop offset="1" stop-color="white" stop-opacity="0"/>
</linearGradient>
</defs>
</svg>
